<?xml version="1.0" encoding="UTF-8"?>
<svg width="16px" height="16px" viewBox="0 0 24 24" version="1.1" xmlns="http://www.w3.org/2000/svg">
    <g stroke="none" stroke-width="1" fill="none" fill-rule="evenodd">
        <path d="M19,3 L5,3 C3.9,3 3,3.9 3,5 L3,19 C3,20.1 3.9,21 5,21 L19,21 C20.1,21 21,20.1 21,19 L21,5 C21,3.9 20.1,3 19,3 Z M12,7 L12,12 L7,12 L7,7 L12,7 Z M7,14 L17,14 L17,16 L7,16 L7,14 Z M14,7 L17,7 L17,12 L14,12 L14,7 Z M7,18 L10,18 L10,20 L7,20 L7,18 Z M11,18 L17,18 L17,20 L11,20 L11,18 Z" fill="#FBBC04" fill-rule="nonzero"></path>
    </g>
</svg>
