<?xml version="1.0" encoding="UTF-8"?>
<svg width="16px" height="16px" viewBox="0 0 24 24" version="1.1" xmlns="http://www.w3.org/2000/svg">
    <g stroke="none" stroke-width="1" fill="none" fill-rule="evenodd">
        <path d="M19,3 L5,3 C3.9,3 3,3.9 3,5 L3,19 C3,20.1 3.9,21 5,21 L19,21 C20.1,21 21,20.1 21,19 L21,5 C21,3.9 20.1,3 19,3 Z M5,19 L5,5 L11,5 L11,19 L5,19 Z M19,19 L13,19 L13,12 L19,12 L19,19 Z M19,10 L13,10 L13,5 L19,5 L19,10 Z" fill="#34A853" fill-rule="nonzero"></path>
        <path d="M7,7 L9,7 L9,9 L7,9 L7,7 Z M7,11 L9,11 L9,13 L7,13 L7,11 Z M7,15 L9,15 L9,17 L7,17 L7,15 Z M15,7 L17,7 L17,9 L15,9 L15,7 Z M15,14 L17,14 L17,16 L15,16 L15,14 Z" fill="#34A853" fill-rule="nonzero"></path>
    </g>
</svg>
